#!OML:ASF H:\Terrain\Patient Classification 1\Walking\liu\liu.ASF
:FULLY-SPECIFIED
:DEGREES
48
root 8.57849 15.5598 -29.4669 7.49537 -8.62685 1.94248
lowerback -2.88719 4.15174 -7.28261
upperback 1.03218 5.81064 0.413187
thorax 1.923 2.80122 4.71361
lowerneck -26.7554 -6.72593 -14.6773
upperneck 15.2984 -7.1328 15.2783
head 10.4179 -2.41554 6.78857
rclavicle -7.61097e-014 -1.0138e-014
rhumerus -16.9883 28.1509 -84.6011
rradius 49.3441
rwrist -22.7776
rhand -34.4299 -17.9857
rfingers 7.12502
rthumb -7.59449 -47.8294
lclavicle -7.61097e-014 -1.0138e-014
lhumerus -60.4941 30.1301 41.9321
lradius 10.3873
lwrist -40.0195
lhand -14.2773 -28.9025
lfingers 7.12502
lthumb 11.8617 0.741524
rfemur -2.52605 -5.361 15.6111
rtibia 63.5119
rfoot 2.48663 -15.8002
rtoes -3.96155
lfemur -40.6056 10.2683 -27.5072
ltibia 45.8556
lfoot -13.0932 2.88826
ltoes -3.41522
49
root 8.59989 15.6142 -29.2623 7.50804 -8.33061 1.31114
lowerback -2.57463 4.00365 -6.47747
upperback 1.02223 5.55495 0.644046
thorax 1.82148 2.6879 4.47664
lowerneck -26.7348 -6.61134 -14.34
upperneck 15.184 -6.96168 14.7268
head 10.3009 -2.3789 6.543
rclavicle -4.12478e-015 -9.34288e-015
rhumerus -17.9197 27.4307 -85.1474
rradius 48.1969
rwrist -22.3327
rhand -36.602 -12.3492
rfingers 7.12502
rthumb -9.69068 -42.1063
lclavicle -4.12478e-015 -9.34288e-015
lhumerus -60.1316 31.8505 41.5887
lradius 10.1792
lwrist -41.6218
lhand -14.7326 -29.2329
lfingers 7.12502
lthumb 11.4226 0.435969
rfemur -4.43709 -5.72357 16.585
rtibia 65.5551
rfoot 0.0173282 -16.7493
rtoes 0.936079
lfemur -39.4598 10.1674 -26.8205
ltibia 45.4657
lfoot -13.6543 2.84401
ltoes -4.09661
50
root 8.61604 15.6703 -29.0577 7.59454 -8.09826 0.985159
lowerback -2.44596 3.85674 -6.03614
upperback 1.04246 5.33343 0.76987
thorax 1.82416 2.58199 4.34943
lowerneck -26.8303 -6.56339 -13.9395
upperneck 15.0831 -6.8817 14.1212
head 10.2206 -2.38225 6.25271
rclavicle -6.72389e-014 -1.19271e-015
rhumerus -18.849 26.6985 -85.6806
rradius 47.1685
rwrist -22.0695
rhand -32.0544 -17.7764
rfingers 7.12502
rthumb -5.30122 -47.6901
lclavicle -6.72389e-014 -1.19271e-015
lhumerus -58.6627 32.5639 43.2063
lradius 10.1394
lwrist -41.4314
lhand -15.0697 -29.4908
lfingers 7.12502
lthumb 11.0975 0.195791
rfemur -6.52024 -6.10355 17.2793
rtibia 67.3162
rfoot -1.08387 -16.7003
rtoes -1.31752
lfemur -38.3157 9.92443 -26.4279
ltibia 44.8439
lfoot -14.188 2.86983
ltoes -4.56821
51
root 8.63179 15.7305 -28.8492 7.61457 -8.02851 1.25266
lowerback -2.4621 3.75633 -6.18708
upperback 1.07482 5.208 0.698686
thorax 1.87523 2.51497 4.36035
lowerneck -26.931 -6.49158 -13.8742
upperneck 15.1841 -6.81342 14.1636
head 10.2633 -2.33829 6.27415
rclavicle 7.32025e-014 3.18055e-015
rhumerus -19.7792 25.8328 -86.2551
rradius 46.043
rwrist -22.0841
rhand -27.2322 -15.6582
rfingers 7.12502
rthumb -0.644329 -45.637
lclavicle 7.32025e-014 3.18055e-015
lhumerus -56.2732 32.1729 46.4155
lradius 10.2626
lwrist -39.7766
lhand -15.1784 -29.4561
lfingers 7.12502
lthumb 10.9927 0.236092
rfemur -8.64209 -6.48065 17.2761
rtibia 68.8448
rfoot -1.99203 -16.421
rtoes -4.71216
lfemur -36.9857 9.52882 -26.6169
ltibia 44.0466
lfoot -14.7602 2.93455
ltoes -3.05873
52
root 8.65078 15.7885 -28.6419 7.64979 -7.89125 1.50687
lowerback -2.51641 3.57947 -6.2954
upperback 1.06883 4.97954 0.697764
thorax 1.91798 2.398 4.41927
lowerneck -26.8239 -6.32139 -14.1488
upperneck 15.3417 -6.61184 14.6291
head 10.3033 -2.21416 6.5419
rclavicle -5.01931e-014 2.62396e-014
rhumerus -20.6771 25.1358 -86.714
rradius 44.6936
rwrist -22.1426
rhand -32.7426 -21.1484
rfingers 7.12502
rthumb -5.96575 -51.0444
lclavicle -5.01931e-014 2.62396e-014
lhumerus -53.9595 31.5457 49.78
lradius 10.4351
lwrist -37.8979
lhand -15.3118 -29.3422
lfingers 7.12502
lthumb 10.864 0.35678
rfemur -10.7326 -6.63725 17.3225
rtibia 70.1073
rfoot -3.59227 -16.0979
rtoes -4.83227
lfemur -35.6513 9.06149 -26.8281
ltibia 43.2074
lfoot -15.322 3.03646
ltoes -1.50322
53
root 8.66801 15.8433 -28.4361 7.79879 -7.67112 1.50832
lowerback -2.69199 3.34185 -6.20777
upperback 1.09169 4.67008 0.81971
thorax 2.07431 2.23792 4.50411
lowerneck -26.8268 -6.14615 -14.1922
upperneck 15.4986 -6.39174 14.7348
head 10.3307 -2.10393 6.6357
rclavicle 3.08116e-015 -1.51076e-014
rhumerus -21.5715 24.3652 -87.0045
rradius 43.4389
rwrist -21.9054
rhand -34.9938 -24.3022
rfingers 7.12502
rthumb -8.13882 -54.1255
lclavicle 3.08116e-015 -1.51076e-014
lhumerus -51.2673 30.2026 54.0823
lradius 10.8193
lwrist -34.8604
lhand -15.7419 -29.172
lfingers 7.12502
lthumb 10.4491 0.548299
rfemur -12.9207 -6.71994 17.7729
rtibia 71.0426
rfoot -4.55031 -15.4526
rtoes -6.28069
lfemur -34.4988 8.70577 -26.8894
ltibia 42.3571
lfoot -15.7279 3.47747
ltoes -3.09474
54
root 8.68291 15.8943 -28.2291 7.89787 -7.47585 1.29323
lowerback -2.70962 3.11961 -5.9919
upperback 0.896489 4.35757 1.01949
thorax 1.91982 2.09427 4.5763
lowerneck -26.2943 -5.84271 -13.9608
upperneck 15.6091 -6.08516 14.4934
head 10.2084 -1.99526 6.55704
rclavicle -3.76697e-014 1.55052e-014
rhumerus -23.0767 23.5111 -87.4946
rradius 42.3119
rwrist -21.5645
rhand -34.1109 -25.4733
rfingers 7.12502
rthumb -7.28665 -55.3278
lclavicle -3.76697e-014 1.55052e-014
lhumerus -48.9012 28.0715 58.3801
lradius 11.268
lwrist -31.3143
lhand -16.3511 -28.8059
lfingers 7.12502
lthumb 9.86138 0.943159
rfemur -14.9759 -6.80035 18.5063
rtibia 71.6232
rfoot -4.97768 -14.5827
rtoes -9.5176
lfemur -33.2807 8.37275 -26.6746
ltibia 41.4821
lfoot -15.9097 3.88337
ltoes -4.08393
55
root 8.6975 15.9419 -28.021 7.76022 -7.23293 1.13243
lowerback -2.31607 2.81846 -5.825
upperback 0.364453 3.90938 1.22136
thorax 1.1996 1.90926 4.63782
lowerneck -24.5448 -5.31839 -13.85
upperneck 15.4365 -5.56106 14.2609
head 9.74467 -1.83478 6.51843
rclavicle -1.85367e-014 -1.98785e-015
rhumerus -25.3761 23.1203 -88.4127
rradius 41.2159
rwrist -21.7223
rhand -33.913 -27.4203
rfingers 7.12502
rthumb -7.09559 -57.2813
lclavicle -1.85367e-014 -1.98785e-015
lhumerus -47.3963 25.2464 62.273
lradius 11.7921
lwrist -27.3156
lhand -16.5524 -28.6803
lfingers 7.12502
lthumb 9.66719 1.07787
rfemur -16.6173 -6.82917 19.1124
rtibia 71.8889
rfoot -6.64573 -13.7149
rtoes -10.5446
lfemur -31.7378 7.89214 -26.4081
ltibia 40.551
lfoot -16.205 4.0406
ltoes -3.25819
56
root 8.70723 15.9928 -27.813 7.57278 -6.95697 1.32967
lowerback -2.21777 2.65261 -5.91858
upperback 0.930794 3.69693 1.30339
thorax 1.74521 1.7692 4.78634
lowerneck -25.9969 -5.5971 -14.0213
upperneck 15.6054 -5.66909 14.1059
head 10.0716 -1.86218 6.4874
rclavicle 2.84262e-014 5.1684e-015
rhumerus -25.2415 22.7573 -88.1936
rradius 40.1953
rwrist -22.7739
rhand -35.9555 -30.9738
rfingers 7.12502
rthumb -9.0669 -60.7589
lclavicle 2.84262e-014 5.1684e-015
lhumerus -44.0238 24.4037 65.886
lradius 11.9337
lwrist -25.4632
lhand -16.6706 -29.2009
lfingers 7.12502
lthumb 9.55318 0.562517
rfemur -18.1733 -6.79581 19.3079
rtibia 71.9228
rfoot -9.33414 -12.4627
rtoes -7.96816
lfemur -30.1356 7.41567 -26.5409
ltibia 39.5515
lfoot -16.8722 4.21884
ltoes -3.22873
57
root 8.71123 16.0413 -27.6078 7.5303 -6.59992 1.49096
lowerback -1.85771 2.34145 -6.04901
upperback 0.489117 3.25246 1.30525
thorax 1.13463 1.57789 4.82051
lowerneck -24.7782 -5.21078 -13.6879
upperneck 15.5294 -5.37424 13.9413
head 9.77025 -1.76522 6.40505
rclavicle 1.29707e-014 1.19271e-015
rhumerus -26.795 21.3657 -88.5762
rradius 38.3433
rwrist -21.3538
rhand -33.6609 -26.4788
rfingers 7.12502
rthumb -6.85225 -56.3479
lclavicle 1.29707e-014 1.19271e-015
lhumerus -42.6302 21.9158 68.829
lradius 12.509
lwrist -22.6948
lhand -17.2299 -28.9779
lfingers 7.12502
lthumb 9.01355 0.809561
rfemur -19.9253 -6.89915 19.6824
rtibia 71.7355
rfoot -10.5345 -11.4336
rtoes -10.3214
lfemur -28.7481 7.03022 -26.6885
ltibia 38.6037
lfoot -17.4252 4.46338
ltoes -4.06771
58
root 8.71543 16.0798 -27.405 7.5727 -6.17937 1.50452
lowerback -1.74837 2.11418 -6.00024
upperback 0.39072 2.93899 1.29713
thorax 1.01427 1.42798 4.77263
lowerneck -24.5232 -5.10538 -13.3823
upperneck 15.6133 -5.3957 14.015
head 9.75359 -1.75651 6.37848
rclavicle 3.54831e-014 1.35174e-014
rhumerus -27.6229 19.8373 -88.6267
rradius 36.7248
rwrist -20.5008
rhand -32.7254 -25.9134
rfingers 7.12502
rthumb -5.94912 -55.8099
lclavicle 3.54831e-014 1.35174e-014
lhumerus -40.3145 18.7787 72.3802
lradius 13.1194
lwrist -19.1468
lhand -17.7227 -28.2292
lfingers 7.12502
lthumb 8.53792 1.57815
rfemur -21.778 -6.98762 20.277
rtibia 71.3423
rfoot -10.3565 -11.1862
rtoes -14.9167
lfemur -27.4976 6.70802 -26.7224
ltibia 37.7424
lfoot -17.77 4.70359
ltoes -4.9499
59
root 8.72045 16.0911 -27.2045 7.69052 -5.8121 1.63306
lowerback -1.96495 1.9331 -6.01138
upperback 0.607544 2.71713 1.23734
thorax 1.39055 1.29869 4.7286
lowerneck -25.0546 -5.1311 -12.8588
upperneck 15.6594 -5.4968 13.7494
head 9.85294 -1.78091 6.17734
rclavicle 3.8266e-014 1.03368e-014
rhumerus -28.1425 18.3697 -88.4138
rradius 35.4676
rwrist -19.9019
rhand -32.596 -25.8768
rfingers 7.12502
rthumb -5.82415 -55.7767
lclavicle 3.8266e-014 1.03368e-014
lhumerus -37.5548 14.8639 76.2342
lradius 13.8366
lwrist -15.1359
lhand -18.055 -28.4867
lfingers 7.12502
lthumb 8.21723 1.33353
rfemur -23.738 -6.7642 20.6321
rtibia 70.8814
rfoot -11.1503 -10.6364
rtoes -14.3463
lfemur -26.398 6.21958 -26.8432
ltibia 37.0061
lfoot -18.2514 4.79555
ltoes -4.20024
60
root 8.72454 16.1094 -26.9976 7.72353 -5.60561 1.65053
lowerback -2.14582 1.78971 -5.88259
upperback 1.00121 2.5432 1.21906
thorax 1.92755 1.18513 4.65056
lowerneck -26.1849 -5.1466 -12.325
upperneck 15.8082 -5.47576 13.2439
head 10.0624 -1.75566 5.91172
rclavicle 3.15571e-014 4.77083e-015
rhumerus -28.4353 17.3476 -88.1342
rradius 34.25
rwrist -19.6684
rhand -32.7019 -24.0836
rfingers 7.12502
rthumb -5.92637 -53.9808
lclavicle 3.15571e-014 4.77083e-015
lhumerus -35.0332 10.4699 79.8982
lradius 14.8828
lwrist -11.1613
lhand -18.7624 -28.7378
lfingers 7.12502
lthumb 7.5345 1.10799
rfemur -25.4457 -6.30703 21.0094
rtibia 70.2128
rfoot -12.8041 -9.74921
rtoes -11.864
lfemur -25.1518 5.74796 -26.8017
ltibia 36.2822
lfoot -18.9575 4.85464
ltoes -3.3209
61
root 8.73045 16.1339 -26.7846 7.60358 -5.3983 1.52192
lowerback -1.52393 1.73523 -5.56261
upperback -0.129291 2.39955 1.37455
thorax 0.433851 1.19144 4.57865
lowerneck -22.6771 -4.81893 -13.4319
upperneck 15.4616 -5.184 13.9332
head 9.34193 -1.73394 6.37171
rclavicle 8.79622e-015 9.14409e-015
rhumerus -32.0237 16.4114 -88.4438
rradius 33.226
rwrist -19.4561
rhand -33.0023 -23.0721
rfingers 7.12502
rthumb -6.21646 -52.9609
lclavicle 8.79622e-015 9.14409e-015
lhumerus -36.1653 5.72675 82.898
lradius 16.5425
lwrist -7.59706
lhand -19.1127 -28.5022
lfingers 7.12502
lthumb 7.19639 1.35548
rfemur -26.8922 -5.94983 21.5253
rtibia 69.3471
rfoot -13.6939 -9.21832
rtoes -11.7345
lfemur -23.7411 5.30752 -26.6165
ltibia 35.587
lfoot -19.4832 5.0824
ltoes -3.65885
